<svg xmlns="http://www.w3.org/2000/svg" viewBox="934.5 266.5 600 600">
  <defs><linearGradient id="rhia-g" gradientUnits="userSpaceOnUse" x1="1286.54" y1="661.802" x2="1148.58" y2="532.764"><stop offset="0" stop-color="#6D50EF"/><stop offset="1" stop-color="#17ABF7"/></linearGradient></defs>
  <rect x="934.5" y="266.5" width="600" height="600" rx="136" fill="#062353"/>
  <g>
    <path fill="url(#rhia-g)" d="M 1178.13 743.248 C 1177.86 728.155 1178.57 713.012 1178.77 697.906 C 1179.05 662.456 1179.56 627.007 1180.32 591.564 C 1180.72 564.606 1179.89 533.325 1182.62 506.656 C 1184.91 484.196 1209.38 463.963 1232.65 464.006 C 1245.23 464.137 1257.23 469.294 1265.99 478.329 C 1286.36 499.128 1281.33 529.529 1281.12 556.615 L 1279.61 671.335 C 1279.38 686.368 1279.52 703.553 1278.84 718.4 C 1279.17 730.046 1278.47 742.828 1278.52 753.576 C 1278.75 800.391 1246.06 828.759 1200 824.658 C 1177.63 822.667 1177.66 804.662 1177.26 786.348 C 1177.87 772.717 1176.88 756.976 1178.13 743.248 z"/>
    <path fill="#9958EA" d="M 1269.71 671.726 C 1275.14 673.67 1274.78 674.107 1279.61 671.335 C 1279.38 686.368 1279.52 703.553 1278.84 718.4 C 1279.17 730.046 1278.47 742.828 1278.52 753.576 C 1278.75 800.391 1246.06 828.759 1200 824.658 C 1177.63 822.667 1177.66 804.662 1177.26 786.348 C 1177.87 772.717 1176.88 756.976 1178.13 743.248 C 1180.73 737.08 1178.18 732.195 1180.89 726.043 C 1186.07 722.805 1191.47 720.758 1196.9 717.299 C 1210.39 708.709 1225.89 697.514 1242.02 694.823 C 1247.64 693.888 1249.42 694.615 1254.77 691.978 C 1259.54 682.535 1263.57 680.124 1269.71 671.726 z"/>
    <path fill="#7344E5" d="M 1269.71 671.726 C 1275.14 673.67 1274.78 674.107 1279.61 671.335 C 1279.38 686.368 1279.52 703.553 1278.84 718.4 C 1277.3 712.333 1277.77 688.639 1277.79 680.923 C 1273.69 682.024 1271.98 682.194 1267.81 682.614 C 1264.61 685.521 1258.64 690.29 1254.77 691.978 C 1259.54 682.535 1263.57 680.124 1269.71 671.726 z"/>
    <path fill="#5271F3" d="M 1200.61 429.623 C 1175.11 412.605 1164.43 380.433 1174.69 351.54 C 1184.95 322.647 1213.53 304.421 1244.06 307.305 C 1271.84 309.929 1295.07 329.506 1302.37 356.434 C 1309.67 383.362 1299.5 411.993 1276.85 428.283 C 1254.2 444.574 1223.82 445.108 1200.61 429.623 z"/>
    <path fill="#3CB3F7" d="M 1200.61 429.623 C 1175.11 412.605 1164.43 380.433 1174.69 351.54 C 1184.95 322.647 1213.53 304.421 1244.06 307.305 C 1237.89 310.275 1224.56 307.511 1223.17 312.458 C 1220.12 323.334 1215.37 335.088 1211.58 345.703 C 1205.16 363.645 1196.55 399.915 1186.74 414.955 C 1189.48 417.732 1200.29 427.424 1200.83 429.018 L 1200.61 429.623 z"/>
  </g>
</svg>
